<mxfile host="app.diagrams.net" modified="2024-02-08T12:00:51.276Z" agent="Mozilla/5.0 (Windows NT 10.0; Win64; x64) AppleWebKit/537.36 (KHTML, like Gecko) Chrome/121.0.0.0 Safari/537.36" etag="7-BF0quK04-6xtKsrzxs" version="23.1.2" type="github">
  <diagram name="Page-1" id="YhOFV-fhZ2HJHw0h4Ov-">
    <mxGraphModel dx="1730" dy="426" grid="1" gridSize="10" guides="1" tooltips="1" connect="1" arrows="1" fold="1" page="1" pageScale="1" pageWidth="850" pageHeight="1100" math="0" shadow="0">
      <root>
        <mxCell id="0" />
        <mxCell id="1" parent="0" />
        <mxCell id="hRGfFFppvF19Gc2IbTOH-2" value="VPC" style="points=[[0,0],[0.25,0],[0.5,0],[0.75,0],[1,0],[1,0.25],[1,0.5],[1,0.75],[1,1],[0.75,1],[0.5,1],[0.25,1],[0,1],[0,0.75],[0,0.5],[0,0.25]];outlineConnect=0;gradientColor=none;html=1;whiteSpace=wrap;fontSize=12;fontStyle=0;container=1;pointerEvents=0;collapsible=0;recursiveResize=0;shape=mxgraph.aws4.group;grIcon=mxgraph.aws4.group_vpc2;strokeColor=#8C4FFF;fillColor=none;verticalAlign=top;align=left;spacingLeft=30;fontColor=#AAB7B8;dashed=0;" vertex="1" parent="1">
          <mxGeometry x="100" y="70" width="720" height="370" as="geometry" />
        </mxCell>
        <mxCell id="hRGfFFppvF19Gc2IbTOH-1" value="" style="outlineConnect=0;dashed=0;verticalLabelPosition=bottom;verticalAlign=top;align=center;html=1;shape=mxgraph.aws3.ec2;fillColor=#F58534;gradientColor=none;" vertex="1" parent="hRGfFFppvF19Gc2IbTOH-2">
          <mxGeometry x="516" y="130" width="56.5" height="70" as="geometry" />
        </mxCell>
        <mxCell id="hRGfFFppvF19Gc2IbTOH-4" value="" style="outlineConnect=0;dashed=0;verticalLabelPosition=bottom;verticalAlign=top;align=center;html=1;shape=mxgraph.aws3.ec2;fillColor=#F58534;gradientColor=none;" vertex="1" parent="hRGfFFppvF19Gc2IbTOH-2">
          <mxGeometry x="291.75" y="130" width="56.5" height="70" as="geometry" />
        </mxCell>
        <mxCell id="hRGfFFppvF19Gc2IbTOH-9" value="" style="outlineConnect=0;dashed=0;verticalLabelPosition=bottom;verticalAlign=top;align=center;html=1;shape=mxgraph.aws3.route_table;fillColor=#F58536;gradientColor=none;" vertex="1" parent="hRGfFFppvF19Gc2IbTOH-2">
          <mxGeometry x="130" y="140.5" width="75" height="69" as="geometry" />
        </mxCell>
        <mxCell id="hRGfFFppvF19Gc2IbTOH-13" value="Subnet" style="sketch=0;outlineConnect=0;gradientColor=none;html=1;whiteSpace=wrap;fontSize=12;fontStyle=0;shape=mxgraph.aws4.group;grIcon=mxgraph.aws4.group_subnet;strokeColor=#879196;fillColor=none;verticalAlign=top;align=left;spacingLeft=30;fontColor=#879196;dashed=0;" vertex="1" parent="hRGfFFppvF19Gc2IbTOH-2">
          <mxGeometry x="255" y="110" width="130" height="130" as="geometry" />
        </mxCell>
        <mxCell id="hRGfFFppvF19Gc2IbTOH-14" value="Subnet" style="sketch=0;outlineConnect=0;gradientColor=none;html=1;whiteSpace=wrap;fontSize=12;fontStyle=0;shape=mxgraph.aws4.group;grIcon=mxgraph.aws4.group_subnet;strokeColor=#879196;fillColor=none;verticalAlign=top;align=left;spacingLeft=30;fontColor=#879196;dashed=0;movable=1;resizable=1;rotatable=1;deletable=1;editable=1;locked=0;connectable=1;" vertex="1" parent="hRGfFFppvF19Gc2IbTOH-2">
          <mxGeometry x="479.25" y="110" width="130" height="130" as="geometry" />
        </mxCell>
        <mxCell id="hRGfFFppvF19Gc2IbTOH-10" value="" style="sketch=0;outlineConnect=0;fontColor=#232F3E;gradientColor=none;fillColor=#8C4FFF;strokeColor=none;dashed=0;verticalLabelPosition=bottom;verticalAlign=top;align=center;html=1;fontSize=12;fontStyle=0;aspect=fixed;pointerEvents=1;shape=mxgraph.aws4.internet_gateway;" vertex="1" parent="hRGfFFppvF19Gc2IbTOH-2">
          <mxGeometry x="10" y="136" width="78" height="78" as="geometry" />
        </mxCell>
        <mxCell id="hRGfFFppvF19Gc2IbTOH-15" value="" style="outlineConnect=0;dashed=0;verticalLabelPosition=bottom;verticalAlign=top;align=center;html=1;shape=mxgraph.aws3.internet_3;fillColor=#D2D3D3;gradientColor=none;" vertex="1" parent="1">
          <mxGeometry x="-10" y="228" width="79.5" height="54" as="geometry" />
        </mxCell>
      </root>
    </mxGraphModel>
  </diagram>
</mxfile>
